#!OML:ASF X:\für Bonn\!DataBase\2005_08_12_Daniel\c3d\Daniel.ASF
:FULLY-SPECIFIED
:DEGREES
31
root -17.2882 17.5841 23.0855 -494.472 69.9511 -498.666
lowerback 12.0586 -4.96087 5.8851
upperback 2.78949 -5.68474 0.559443
thorax -4.31736 -2.81192 -1.80483
lowerneck -0.181317 14.8461 -0.970711
upperneck 0.794488 20.2361 -11.9497
head 1.54886 10.0687 -3.21468
rclavicle 7.55382e-015 -1.11319e-014
rhumerus -71.0121 9.33529 -86.0891
rradius 43.4183
rwrist -2.00931
rhand -29.0664 30.8979
rfingers 7.12502
rthumb -2.41587 0.931789
lclavicle 7.55382e-015 -1.11319e-014
lhumerus -42.5584 -1.6433 83.698
lradius 116.353
lwrist 14.6753
lhand -16.128 -15.8932
lfingers 7.12502
lthumb 10.0767 13.8455
rfemur -31.5028 1.76262 29.7969
rtibia 36.2909
rfoot -7.39822 -0.196398
rtoes -25.6013
lfemur 7.88643 -11.5439 -19.0502
ltibia 39.6748
lfoot -0.95452 -5.99307
ltoes 5.83081
32
root -17.0758 17.5473 23.0074 -494.854 69.7877 -498.813
lowerback 12.1866 -5.00985 6.1661
upperback 2.75465 -5.69854 0.610367
thorax -4.44678 -2.82317 -1.89154
lowerneck 0.00390266 14.9228 -1.02264
upperneck 0.429528 20.286 -11.955
head 1.39556 10.1176 -3.23942
rclavicle -4.13472e-014 -1.59028e-015
rhumerus -70.6377 8.33591 -85.3985
rradius 44.0702
rwrist -3.00302
rhand -28.4567 30.5291
rfingers 7.12502
rthumb -1.82703 0.557154
lclavicle -4.13472e-014 -1.59028e-015
lhumerus -43.3474 -2.2029 83.8744
lradius 115.588
lwrist 14.5873
lhand -15.6075 -16.0876
lfingers 7.12502
lthumb 10.5788 13.6261
rfemur -30.8541 1.73459 29.8309
rtibia 35.5559
rfoot -7.6691 -0.214765
rtoes -24.8028
lfemur 7.42335 -11.1427 -19.0649
ltibia 41.7899
lfoot 0.0378915 -5.82499
ltoes 5.17564
33
root -16.8665 17.4975 22.9284 -495.205 69.5803 -498.868
lowerback 12.3606 -5.05146 6.48408
upperback 2.74542 -5.68953 0.695854
thorax -4.57251 -2.82191 -1.96413
lowerneck 0.268181 14.9622 -1.02608
upperneck -0.0383575 20.2762 -12.0584
head 1.20949 10.1448 -3.31645
rclavicle 4.41302e-014 -1.59028e-015
rhumerus -70.251 7.31081 -84.6587
rradius 44.8712
rwrist -3.97196
rhand -27.9862 30.214
rfingers 7.12502
rthumb -1.37257 0.238634
lclavicle 4.41302e-014 -1.59028e-015
lhumerus -44.1812 -2.80187 84.1499
lradius 114.744
lwrist 14.5806
lhand -15.1561 -16.2332
lfingers 7.12502
lthumb 11.0142 13.4579
rfemur -30.2509 1.60563 29.9465
rtibia 35.3068
rfoot -7.97861 -0.212812
rtoes -22.6248
lfemur 6.91981 -10.7972 -19.0498
ltibia 44.13
lfoot 0.671101 -5.61003
ltoes 4.17559
34
root -16.6608 17.4328 22.85 -495.431 69.3568 -498.728
lowerback 12.6133 -5.06198 6.82209
upperback 2.76778 -5.62371 0.825207
thorax -4.70025 -2.79061 -2.00776
lowerneck 0.408503 14.9713 -0.982113
upperneck -0.44346 20.2429 -12.2023
head 1.07372 10.1538 -3.40027
rclavicle -8.38871e-014 5.24792e-014
rhumerus -69.907 6.32538 -83.9434
rradius 45.814
rwrist -4.92966
rhand -27.8048 30.0714
rfingers 7.12502
rthumb -1.19736 0.0950168
lclavicle -8.38871e-014 5.24792e-014
lhumerus -45.0366 -3.41716 84.5728
lradius 113.859
lwrist 14.6605
lhand -14.7687 -16.3032
lfingers 7.12502
lthumb 11.3878 13.3675
rfemur -29.6158 1.42914 30.1704
rtibia 35.5219
rfoot -8.70424 0.0194716
rtoes -20.9913
lfemur 6.37439 -10.4405 -18.9756
ltibia 46.6886
lfoot 1.0182 -5.36464
ltoes 2.99846
35
root -16.4588 17.354 22.7712 -495.64 69.106 -498.521
lowerback 12.9621 -5.06392 7.18238
upperback 2.80685 -5.5299 0.962567
thorax -4.86103 -2.74505 -2.05411
lowerneck 0.440549 14.952 -0.799495
upperneck -0.828088 20.1831 -12.4042
head 0.98299 10.1451 -3.51223
rclavicle -5.68524e-014 2.06736e-014
rhumerus -69.5995 5.43296 -83.3848
rradius 46.8436
rwrist -5.90501
rhand -27.9442 30.1
rfingers 7.12502
rthumb -1.332 0.124456
lclavicle -5.68524e-014 2.06736e-014
lhumerus -45.954 -4.03508 85.0848
lradius 112.97
lwrist 14.7842
lhand -14.3781 -16.3725
lfingers 7.12502
lthumb 11.7645 13.2771
rfemur -28.9575 1.17471 30.4475
rtibia 36.1502
rfoot -9.67856 0.529129
rtoes -19.5173
lfemur 5.77041 -10.0222 -18.8281
ltibia 49.4155
lfoot 1.10498 -5.12204
ltoes 1.65754
36
root -16.2616 17.2625 22.6932 -495.855 68.8246 -498.282
lowerback 13.3968 -5.05803 7.56865
upperback 2.85978 -5.40744 1.11303
thorax -5.05142 -2.68501 -2.10132
lowerneck 0.384142 14.9035 -0.52771
upperneck -1.22828 20.0914 -12.6827
head 0.918495 10.1187 -3.65541
rclavicle -5.28767e-014 -6.36111e-015
rhumerus -69.2922 4.62607 -82.9632
rradius 48.0005
rwrist -6.91545
rhand -28.1895 30.1907
rfingers 7.12502
rthumb -1.56896 0.216682
lclavicle -5.28767e-014 -6.36111e-015
lhumerus -46.9447 -4.6211 85.6948
lradius 112.1
lwrist 15.0174
lhand -13.9695 -16.354
lfingers 7.12502
lthumb 12.1585 13.2726
rfemur -28.3632 0.941516 30.7194
rtibia 37.1195
rfoot -10.8373 1.17785
rtoes -17.7443
lfemur 5.03359 -9.4452 -18.5112
ltibia 52.3134
lfoot 1.02084 -5.00998
ltoes 0.733139
37
root -16.0655 17.1628 22.6148 -495.975 68.5463 -497.916
lowerback 13.8453 -5.04006 7.95033
upperback 2.94892 -5.26043 1.2943
thorax -5.20373 -2.60976 -2.12051
lowerneck 0.220561 14.8499 -0.264015
upperneck -1.5987 20.0006 -12.9587
head 0.880302 10.0881 -3.78644
rclavicle -8.0309e-014 -9.54166e-015
rhumerus -68.8393 3.87758 -82.5883
rradius 49.2295
rwrist -7.78418
rhand -28.538 30.289
rfingers 7.12502
rthumb -1.9055 0.3178
lclavicle -8.0309e-014 -9.54166e-015
lhumerus -47.8871 -5.13133 86.4004
lradius 111.254
lwrist 15.2796
lhand -13.5029 -16.1424
lfingers 7.12502
lthumb 12.6084 13.4571
rfemur -27.8347 0.727425 31.0078
rtibia 38.3393
rfoot -12.1517 1.84161
rtoes -15.8295
lfemur 4.19538 -8.72132 -18.0573
ltibia 55.3272
lfoot 0.845595 -4.86469
ltoes 0.761247
